<svg xmlns="http://www.w3.org/2000/svg" xmlns:svg="http://www.w3.org/2000/svg" id="svg3450" width="260" height="70" version="1.1"><title id="title3072">Logo Dolibarr ERP-CRM</title><defs id="defs3452"><linearGradient id="linearGradient3734"><stop style="stop-color:#a1590c;stop-opacity:1" id="stop3736" offset="0"/><stop style="stop-color:#d3a768;stop-opacity:1" id="stop3738" offset="1"/></linearGradient></defs><metadata id="metadata3455"/><g id="layer1" style="display:inline" transform="translate(0,-530)"><text xml:space="preserve" style="font-style:normal;font-weight:400;line-height:0%;font-family:sans-serif;letter-spacing:0;word-spacing:0;fill:#525252;fill-opacity:1;stroke:none" id="text3763" x="188.29" y="440.526" transform="scale(0.74258923,1.3466395)"><tspan id="tspan3765" x="188.29" y="440.526" style="font-size:58.11785507px;line-height:1.25;font-family:sans-serif">Store</tspan></text><path d="m 24.436019,555.72292 v 38.45934 l -14.106106,-0.15741 v 0.15741 -53.89033 h 18.379631 c 8.060629,0 14.372471,2.07321 18.93553,6.21963 5.420081,4.95996 8.130122,11.69133 8.130122,20.19412 0,8.13538 -2.316275,14.77491 -6.948822,19.91857 -4.632547,5.14366 -10.476609,7.5929 -17.772872,7.5929 -0.857021,0 -2.402771,-0.028 -4.324371,-0.0348 v -15.78527 l 3.885273,-0.0213 c 8.222652,-0.045 10.707244,-3.87586 10.707244,-11.67008 0,-7.32185 -4.041895,-10.98277 -12.125687,-10.98277 z" style="font-style:normal;font-variant:normal;font-weight:700;font-stretch:normal;font-size:194.85823059px;line-height:125%;font-family:'Bauhaus 93';-inkscape-font-specification:'Bauhaus 93';text-align:start;writing-mode:lr-tb;text-anchor:start;display:inline;fill:#a05a2c;fill-opacity:1;fill-rule:nonzero;stroke:none;stroke-width:.66361171;stroke-linecap:round;stroke-miterlimit:4;stroke-dasharray:none;stroke-opacity:.18431373" id="path8463"/><path d="m 77.907188,553.35652 q 7.365748,0 12.612105,6.02282 5.281101,5.98343 5.281101,14.36813 0,8.50278 -5.350592,14.48624 -5.315846,5.98344 -12.855317,5.98344 -7.539464,0 -12.890055,-5.98344 -5.350596,-6.02281 -5.350596,-14.48624 0,-8.62088 5.350596,-14.48624 5.350591,-5.90471 13.202758,-5.90471 z m -0.347444,14.5256 q -2.084646,0 -3.543897,1.73205 -1.459254,1.69269 -1.459254,4.17266 0,2.44062 1.459254,4.17267 1.493996,1.73205 3.543897,1.73205 2.084649,0 3.5439,-1.73205 1.493991,-1.73205 1.493991,-4.17267 0,-2.47997 -1.459246,-4.17266 -1.459254,-1.73205 -3.578645,-1.73205 z" style="font-style:normal;font-variant:normal;font-weight:700;font-stretch:normal;font-size:194.85823059px;line-height:125%;font-family:'Bauhaus 93';-inkscape-font-specification:'Bauhaus 93';text-align:start;writing-mode:lr-tb;text-anchor:start;display:inline;fill:#a05a2c;fill-opacity:1;fill-rule:nonzero;stroke:none;stroke-width:.66361171;stroke-linecap:round;stroke-miterlimit:4;stroke-dasharray:none;stroke-opacity:.18431373" id="path8465"/><path d="m 114.21477,540.32682 v 53.89033 h -12.99429 v -53.89033 z" style="font-style:normal;font-variant:normal;font-weight:700;font-stretch:normal;font-size:194.85823059px;line-height:125%;font-family:'Bauhaus 93';-inkscape-font-specification:'Bauhaus 93';text-align:start;writing-mode:lr-tb;text-anchor:start;display:inline;fill:#a05a2c;fill-opacity:1;fill-rule:nonzero;stroke:none;stroke-width:.66361171;stroke-linecap:round;stroke-miterlimit:4;stroke-dasharray:none;stroke-opacity:.18431373" id="path8467"/><path d="m 134.79383,554.19861 v 40.01854 h -12.9943 v -40.01854 z" style="font-style:normal;font-variant:normal;font-weight:700;font-stretch:normal;font-size:194.85823059px;line-height:125%;font-family:'Bauhaus 93';-inkscape-font-specification:'Bauhaus 93';text-align:start;writing-mode:lr-tb;text-anchor:start;display:inline;fill:#a05a2c;fill-opacity:1;fill-rule:nonzero;stroke:none;stroke-width:.57185936;stroke-linecap:round;stroke-miterlimit:4;stroke-dasharray:none;stroke-opacity:.18431373" id="path8467-5"/><ellipse style="display:inline;fill:#a05a2c;fill-opacity:1;stroke:none;stroke-width:.40034935;stroke-opacity:1" id="path957" cx="128.258" cy="542.888" rx="6.722" ry="7.109"/></g></svg>